<?xml version="1.0" encoding="utf-8"?>
<!-- Generator: Adobe Illustrator 16.0.0, SVG Export Plug-In . SVG Version: 6.00 Build 0)  -->
<!DOCTYPE svg PUBLIC "-//W3C//DTD SVG 1.1//EN" "http://www.w3.org/Graphics/SVG/1.1/DTD/svg11.dtd">
<svg version="1.1" id="Layer_1" xmlns="http://www.w3.org/2000/svg" xmlns:xlink="http://www.w3.org/1999/xlink" x="0px" y="0px"
	 width="256px" height="256px" viewBox="0 0 256 256" enable-background="new 0 0 256 256" xml:space="preserve">
<rect x="0.618" fill="#739898" stroke="#000000" stroke-miterlimit="10" width="256" height="256"/>
<g>
	<g>
		<g>
			<g>
				<g>
					<g>
						<g>
							<path fill="#F6E9E5" d="M25.69,126.166c0,0,3.678,25.29,17.922,25.29c14.245,0,19.028,0,19.028,0s-6.543-25.29-20.787-25.29
								C27.606,126.166,25.69,126.166,25.69,126.166z"/>
						</g>
					</g>
					<g>
						<g>
							<path fill="#D86D7A" d="M32.234,130.647c0,0,2.377,16.326,11.574,16.326c9.195,0,12.284,0,12.284,0
								s-4.227-16.326-13.422-16.326C33.477,130.647,32.234,130.647,32.234,130.647z"/>
						</g>
					</g>
				</g>
				<g>
					<g>
						<g>
							<path fill="#F6E9E5" d="M146.287,126.166c0,0-3.682,25.29-17.925,25.29c-14.248,0-19.029,0-19.029,0
								s6.543-25.29,20.788-25.29C144.363,126.166,146.287,126.166,146.287,126.166z"/>
						</g>
					</g>
					<g>
						<g>
							<path fill="#D86D7A" d="M139.74,130.647c0,0-2.379,16.326-11.571,16.326c-9.197,0-12.289,0-12.289,0
								s4.226-16.326,13.424-16.326C138.502,130.647,139.74,130.647,139.74,130.647z"/>
						</g>
					</g>
				</g>
			</g>
			<g>
				<g>
					<g>
						<path fill="#D3C5C1" d="M82.476,116.534c-0.861,0.862-1.354,2.071-1.354,3.292c0,0.088,0.021,0.173,0.027,0.262
							c-0.064,0.007-0.13,0.016-0.194,0.023c-0.014-0.087-0.013-0.172-0.031-0.259c-0.543-2.508-3.027-4.088-5.535-3.53
							c-2.509,0.544-4.087,3.026-3.53,5.534c0.019,0.088,0.055,0.166,0.08,0.25c-0.061,0.021-0.118,0.043-0.178,0.063
							c-0.035-0.09-0.056-0.184-0.1-0.272c-1.115-2.309-3.902-3.265-6.199-2.137c-2.311,1.115-3.264,3.903-2.147,6.211
							c0.044,0.09,0.098,0.17,0.146,0.257c-0.045,0.031-0.092,0.061-0.141,0.092c-0.063-0.083-0.109-0.176-0.181-0.256
							c-1.667-1.936-4.604-2.148-6.554-0.478c-1.939,1.686-2.149,4.605-0.479,6.558c0.072,0.081,0.157,0.137,0.232,0.213
							c-0.041,0.045-0.079,0.095-0.12,0.139c-0.087-0.064-0.161-0.146-0.257-0.206c-2.147-1.406-5.031-0.812-6.423,1.341
							c-1.408,2.15-0.809,5.029,1.339,6.437c0.098,0.063,0.2,0.108,0.298,0.164c-0.022,0.05-0.049,0.102-0.073,0.152
							c-0.106-0.042-0.205-0.098-0.318-0.131c-2.455-0.729-5.041,0.678-5.773,3.134c-0.728,2.467,0.675,5.041,3.146,5.772
							c0.109,0.031,0.22,0.05,0.333,0.073c-0.007,0.059-0.017,0.115-0.023,0.171c-0.113-0.009-0.222-0.033-0.337-0.033
							c-2.574,0.015-4.645,2.097-4.631,4.657c0,2.563,2.082,4.634,4.644,4.634h0.015c0.08,0,0.155-0.021,0.234-0.024
							c0.003,0.059,0.013,0.115,0.019,0.172c-0.062,0.008-0.116,0.002-0.172,0.012c-2.538,0.438-4.234,2.84-3.811,5.361v0.014
							c0.397,2.258,2.35,3.861,4.577,3.861c0.255,0,0.52-0.025,0.785-0.08c0.044-0.006,0.08-0.023,0.124-0.032
							c0.009,0.051,0.019,0.104,0.033,0.157c-2.498,0.553-4.084,3.027-3.542,5.529h0.015c0.464,2.178,2.386,3.648,4.524,3.648
							c0.312,0,0.624-0.024,0.934-0.095c0.006,0.055,0.02,0.112,0.031,0.171c-0.016,0.002-0.031,0.002-0.048,0.006
							c-2.51,0.543-4.102,3.011-3.546,5.521c0.465,2.177,2.392,3.661,4.528,3.661c0.332,0,0.663-0.04,0.994-0.105
							c0.007,0,0.012-0.005,0.02-0.005c0.011,0.075,0.024,0.152,0.041,0.229c-0.812,0.185-1.576,0.561-2.168,1.155
							c-0.877,0.863-1.371,2.07-1.371,3.295c0,1.22,0.494,2.413,1.371,3.276c0.31,0.31,0.675,0.555,1.061,0.768
							c-0.059-0.017-0.113-0.049-0.173-0.065c-2.483-0.65-5.033,0.825-5.694,3.292c-0.65,2.48,0.81,5.017,3.279,5.683
							c-2.551-0.029-4.646,2.002-4.698,4.551c-0.053,2.56,1.991,4.685,4.553,4.738c0.039,0,0.077,0,0.133,0
							c-0.067,0.026-0.133,0.051-0.189,0.065c-2.375,0.982-3.516,3.688-2.547,6.064h0.013c0.97,2.377,3.678,3.503,6.053,2.537
							c0.053-0.014,0.104-0.042,0.157-0.068c-0.026,0.026-0.052,0.055-0.076,0.068c-1.871,1.765-1.966,4.696-0.213,6.566
							c1.753,1.872,4.696,1.965,6.566,0.215c0.014-0.015,0.028-0.026,0.044-0.026c-1.315,2.204-0.587,5.042,1.629,6.356
							c2.189,1.3,5.032,0.584,6.346-1.606c-0.731,2.428,0.636,5.003,3.064,5.759c2.428,0.759,5.003-0.581,5.8-2.985
							c-0.198,2.523,1.66,4.739,4.179,4.978c0.147,0.013,0.305,0.013,0.453,0.013c1.917,0,3.606-1.197,4.295-2.933V115.258
							C84.554,115.258,83.344,115.67,82.476,116.534z"/>
					</g>
				</g>
				<g>
					<g>
						<path fill="#F6E9E5" d="M91.143,241.248c2.521-0.252,4.367-2.471,4.166-4.976c0.809,2.387,3.387,3.701,5.814,2.944
							c2.414-0.77,3.769-3.345,3.041-5.772c1.324,2.178,4.166,2.878,6.354,1.564c2.19-1.312,2.908-4.168,1.593-6.368
							c0.012,0.015,0.025,0.026,0.039,0.037c1.887,1.741,4.833,1.623,6.572-0.264c1.735-1.884,1.617-4.817-0.27-6.556
							c-0.024-0.027-0.051-0.055-0.091-0.08c0.066,0.025,0.118,0.039,0.172,0.064c2.392,0.944,5.084-0.21,6.042-2.598
							c0.94-2.379-0.23-5.086-2.604-6.04c-0.067-0.027-0.133-0.04-0.2-0.068c0.055,0,0.107,0,0.161,0
							c2.573-0.065,4.592-2.201,4.527-4.764c-0.07-2.548-2.178-4.566-4.715-4.523c2.471-0.692,3.915-3.24,3.24-5.696
							c-0.678-2.479-3.24-3.94-5.707-3.264c-0.111,0.031-0.206,0.082-0.311,0.12c-0.004-0.012-0.01-0.028-0.017-0.038
							c0.418-0.217,0.813-0.479,1.147-0.813c0.864-0.863,1.354-2.057,1.354-3.291c0-1.22-0.489-2.413-1.354-3.277
							c-0.6-0.605-1.377-0.982-2.202-1.165c0.006-0.037,0.016-0.074,0.021-0.111c0,0,0.004-0.026,0.016-0.075
							c0.01,0.002,0.021,0.01,0.031,0.01c0.332,0.067,0.661,0.107,0.982,0.107c2.136,0,4.059-1.487,4.537-3.666
							c0.529-2.506-1.05-4.987-3.556-5.531c-0.018-0.004-0.033-0.002-0.049-0.007c0.001-0.015,0.008-0.032,0.01-0.049
							c0.006-0.028,0.011-0.052,0.016-0.079c0.31,0.066,0.631,0.096,0.938,0.096c2.126,0,4.048-1.473,4.526-3.65
							c0.543-2.504-1.032-4.971-3.532-5.52c0.01-0.047,0.02-0.092,0.026-0.141c0.045,0.008,0.081,0.024,0.122,0.033
							c0.266,0.052,0.517,0.065,0.783,0.065c2.228,0,4.193-1.605,4.564-3.86c0.438-2.535-1.273-4.939-3.795-5.365
							c-0.059-0.008-0.122-0.002-0.183-0.011c0.005-0.048,0.012-0.097,0.013-0.146c0.086,0.006,0.165,0.023,0.25,0.023
							c2.561-0.011,4.632-2.094,4.632-4.656c0-2.561-2.083-4.645-4.645-4.633c-0.113,0-0.224,0.027-0.334,0.035
							c-0.008-0.049-0.013-0.102-0.021-0.15c0.108-0.025,0.22-0.036,0.328-0.07c2.468-0.744,3.86-3.33,3.132-5.785
							c-0.743-2.457-3.332-3.85-5.785-3.119c-0.112,0.033-0.212,0.089-0.315,0.13c-0.021-0.047-0.044-0.092-0.065-0.135
							c0.101-0.057,0.201-0.104,0.299-0.168c2.137-1.407,2.735-4.288,1.328-6.423c-1.407-2.15-4.286-2.748-6.424-1.342
							c-0.094,0.063-0.17,0.144-0.259,0.21c-0.036-0.04-0.071-0.085-0.104-0.124c0.073-0.078,0.162-0.135,0.23-0.218
							c1.673-1.938,1.459-4.871-0.491-6.542c-1.937-1.674-4.871-1.46-6.543,0.479c-0.073,0.082-0.119,0.175-0.184,0.261
							c-0.041-0.028-0.083-0.056-0.127-0.084c0.049-0.086,0.108-0.167,0.15-0.259c1.129-2.309,0.16-5.083-2.137-6.212
							c-2.311-1.127-5.096-0.157-6.223,2.152c-0.042,0.086-0.063,0.176-0.099,0.263c-0.049-0.017-0.094-0.033-0.14-0.049
							c0.022-0.085,0.059-0.166,0.077-0.254c0.559-2.507-1.021-4.99-3.526-5.534c-2.51-0.558-4.979,1.022-5.538,3.53
							c-0.018,0.087-0.016,0.173-0.031,0.259c-0.065-0.007-0.13-0.016-0.194-0.022c0.005-0.087,0.027-0.175,0.027-0.263
							c0-1.221-0.506-2.43-1.367-3.292c-0.891-0.889-2.146-1.313-3.393-1.283c-0.04-0.002-0.079,0.007-0.115,0.007v123.097
							c0.146-0.368,0.262-0.748,0.309-1.154C86.376,239.695,88.619,241.5,91.143,241.248z"/>
					</g>
				</g>
			</g>
			<g>
				<g>
					<g>
						<rect x="67.086" y="225.894" fill="#D3C5C1" width="12.98" height="17.9"/>
					</g>
				</g>
				<g>
					<g>
						<rect x="91.908" y="225.894" fill="#F6E9E5" width="12.983" height="17.9"/>
					</g>
				</g>
				<g>
					<g>
						<g>
							<path fill="#D86D7A" d="M73.438,246.112c0.551,0,0.997,0.446,0.997,0.996v2.486h10.441c0-6.242-5.061-11.3-11.299-11.3
								c-6.238,0-11.3,5.058-11.3,11.3h10.167v-2.486C72.444,246.559,72.891,246.112,73.438,246.112z"/>
						</g>
					</g>
				</g>
				<g>
					<g>
						<g>
							<path fill="#D86D7A" d="M98.26,246.112c0.551,0,0.994,0.446,0.994,0.996v2.486h10.443c0-6.242-5.062-11.3-11.301-11.3
								c-6.237,0-11.299,5.058-11.299,11.3h10.166v-2.486C97.264,246.559,97.709,246.112,98.26,246.112z"/>
						</g>
					</g>
				</g>
			</g>
			<g>
				<g>
					<g>
						<path fill="#D3C5C1" d="M85.989,218.37c21.016,0,28.584-12.107,32.964-23.398c0,0-13.225,18.204-32.392,17.507
							c-16.259-0.59-33.946-17.391-33.946-17.391C56.997,206.382,69.722,218.37,85.989,218.37z"/>
					</g>
				</g>
			</g>
			<g>
				<g>
					<g>
						<path fill="#F5C89A" d="M120.81,161.313c0-9.774-7.92-17.696-17.695-17.696c-8.255,0-15.17,5.66-17.126,13.307
							c-1.956-7.646-8.872-13.307-17.125-13.307c-9.776,0-17.703,7.922-17.703,17.696c0,9.775,6.6,17.698,16.374,17.698
							c0,0,1.163,6.833,1.33,9.133c0.706,9.75,4.714,24.335,17.697,24.335c11.836,0,16.996-14.585,17.697-24.335
							c0.168-2.314,1.326-9.191,1.326-9.191C114.823,178.36,120.81,170.702,120.81,161.313z"/>
					</g>
				</g>
				<g>
					<g>
						<g>
							<g>
								<path fill="#411712" d="M74.71,163.024c0,3.507-2.842,6.35-6.347,6.35c-3.509,0-6.348-2.843-6.348-6.35
									c0-3.503,2.839-6.346,6.348-6.346C71.868,156.679,74.71,159.521,74.71,163.024z"/>
							</g>
						</g>
					</g>
					<g>
						<g>
							<g>
								<path fill="#411712" d="M109.964,163.024c0,3.507-2.844,6.35-6.35,6.35c-3.504,0-6.349-2.843-6.349-6.35
									c0-3.503,2.845-6.346,6.349-6.346C107.121,156.679,109.964,159.521,109.964,163.024z"/>
							</g>
						</g>
					</g>
					<g>
						<g>
							<circle fill="#FFFFFF" cx="70.506" cy="160.907" r="2.116"/>
						</g>
					</g>
					<g>
						<g>
							<path fill="#FFFFFF" d="M107.845,160.907c0,1.17-0.948,2.117-2.114,2.117c-1.173,0-2.117-0.947-2.117-2.117
								c0-1.168,0.944-2.116,2.117-2.116C106.897,158.791,107.845,159.739,107.845,160.907z"/>
						</g>
					</g>
				</g>
			</g>
			<g>
				<g>
					<path fill="#F19EA0" d="M93.664,191.347l-7.678,0.878l-7.676-0.878c-0.718-0.091-1.388,0.438-1.472,1.17
						c-0.082,0.729,0.442,1.384,1.166,1.468l6.566,0.752v9.647c-0.435,0.516-1.443,1.486-2.466,0.938
						c-0.649-0.347-1.453-0.104-1.796,0.539c-0.348,0.647-0.106,1.453,0.539,1.8c0.65,0.348,1.287,0.495,1.886,0.495
						c1.283,0,2.414-0.664,3.239-1.416c0.813,0.754,1.935,1.416,3.23,1.416c0.602,0,1.242-0.143,1.907-0.488
						c0.651-0.335,0.905-1.136,0.567-1.788c-0.334-0.65-1.139-0.903-1.788-0.566c-1.096,0.563-2.065-0.392-2.483-0.913v-9.663
						l6.562-0.752c0.73-0.084,1.25-0.739,1.168-1.468C95.051,191.785,94.391,191.254,93.664,191.347z"/>
				</g>
			</g>
		</g>
		<g>
			<g>
				<g>
					<g>
						<g>
							<path fill="#F6E9E5" d="M143.176,159.15c0,0,2.695,18.531,13.133,18.531s13.941,0,13.941,0s-4.793-18.531-15.23-18.531
								C144.58,159.15,143.176,159.15,143.176,159.15z"/>
						</g>
					</g>
					<g>
						<g>
							<path fill="#D86D7A" d="M147.971,162.435c0,0,1.742,11.963,8.48,11.963s9.002,0,9.002,0s-3.096-11.963-9.834-11.963
								C148.883,162.435,147.971,162.435,147.971,162.435z"/>
						</g>
					</g>
				</g>
				<g>
					<g>
						<g>
							<path fill="#F6E9E5" d="M231.545,159.15c0,0-2.697,18.531-13.135,18.531c-10.439,0-13.943,0-13.943,0
								s4.795-18.531,15.232-18.531S231.545,159.15,231.545,159.15z"/>
						</g>
					</g>
					<g>
						<g>
							<path fill="#D86D7A" d="M226.748,162.435c0,0-1.742,11.963-8.479,11.963c-6.74,0-9.006,0-9.006,0s3.098-11.963,9.838-11.963
								S226.748,162.435,226.748,162.435z"/>
						</g>
					</g>
				</g>
			</g>
			<g>
				<g>
					<g>
						<path fill="#D3C5C1" d="M184.787,152.092c-0.631,0.632-0.992,1.518-0.992,2.412c0,0.064,0.016,0.127,0.02,0.192
							c-0.047,0.005-0.094,0.012-0.143,0.017c-0.01-0.064-0.01-0.126-0.021-0.19c-0.398-1.837-2.219-2.995-4.057-2.587
							c-1.84,0.399-2.996,2.218-2.588,4.056c0.014,0.064,0.041,0.121,0.059,0.184c-0.045,0.015-0.086,0.031-0.131,0.046
							c-0.025-0.065-0.039-0.135-0.072-0.199c-0.816-1.692-2.859-2.393-4.543-1.566c-1.693,0.816-2.391,2.859-1.572,4.551
							c0.031,0.066,0.07,0.125,0.105,0.188c-0.033,0.022-0.066,0.045-0.104,0.067c-0.045-0.061-0.08-0.129-0.133-0.188
							c-1.221-1.419-3.373-1.574-4.801-0.351c-1.422,1.235-1.576,3.375-0.352,4.806c0.053,0.06,0.113,0.1,0.17,0.155
							c-0.031,0.033-0.059,0.07-0.088,0.103c-0.064-0.048-0.117-0.107-0.189-0.151c-1.572-1.03-3.686-0.595-4.705,0.982
							c-1.031,1.576-0.594,3.686,0.98,4.717c0.072,0.046,0.146,0.079,0.219,0.12c-0.018,0.036-0.035,0.074-0.053,0.111
							c-0.078-0.03-0.15-0.071-0.232-0.096c-1.801-0.535-3.695,0.496-4.232,2.296c-0.531,1.808,0.496,3.694,2.307,4.23
							c0.08,0.022,0.162,0.036,0.244,0.054c-0.006,0.043-0.012,0.084-0.018,0.125c-0.082-0.007-0.162-0.024-0.246-0.024
							c-1.887,0.011-3.404,1.536-3.395,3.413c0,1.878,1.525,3.395,3.402,3.395h0.012c0.059,0,0.113-0.015,0.172-0.018
							c0.002,0.043,0.008,0.085,0.014,0.126c-0.047,0.006-0.086,0.002-0.127,0.009c-1.859,0.32-3.104,2.081-2.793,3.929v0.01
							c0.291,1.654,1.723,2.829,3.355,2.829c0.186,0,0.381-0.019,0.574-0.059c0.033-0.004,0.059-0.017,0.09-0.023
							c0.008,0.037,0.014,0.077,0.025,0.115c-1.83,0.405-2.992,2.219-2.596,4.052h0.012c0.34,1.596,1.748,2.674,3.314,2.674
							c0.229,0,0.457-0.019,0.686-0.069c0.004,0.04,0.014,0.082,0.021,0.125c-0.012,0.001-0.021,0.001-0.035,0.004
							c-1.838,0.398-3.004,2.206-2.598,4.046c0.342,1.596,1.752,2.683,3.318,2.683c0.242,0,0.486-0.029,0.729-0.077
							c0.004,0,0.008-0.003,0.014-0.003c0.008,0.055,0.018,0.111,0.029,0.167c-0.594,0.136-1.154,0.411-1.59,0.847
							c-0.643,0.633-1.004,1.517-1.004,2.414c0,0.895,0.361,1.769,1.004,2.401c0.229,0.227,0.496,0.406,0.779,0.563
							c-0.045-0.013-0.084-0.036-0.127-0.048c-1.82-0.477-3.688,0.604-4.172,2.412c-0.479,1.817,0.592,3.676,2.402,4.164
							c-1.869-0.021-3.404,1.467-3.443,3.334c-0.039,1.876,1.459,3.434,3.336,3.473c0.029,0,0.057,0,0.098,0
							c-0.049,0.02-0.098,0.037-0.139,0.048c-1.74,0.72-2.576,2.703-1.867,4.443h0.012c0.709,1.742,2.693,2.567,4.434,1.859
							c0.039-0.01,0.078-0.03,0.115-0.05c-0.018,0.02-0.037,0.04-0.057,0.05c-1.371,1.293-1.439,3.441-0.154,4.812
							c1.285,1.372,3.441,1.44,4.811,0.157c0.012-0.011,0.021-0.019,0.033-0.019c-0.965,1.615-0.43,3.694,1.193,4.657
							c1.605,0.953,3.688,0.428,4.65-1.177c-0.535,1.779,0.467,3.666,2.246,4.22c1.779,0.556,3.666-0.426,4.25-2.188
							c-0.145,1.849,1.217,3.473,3.063,3.647c0.107,0.009,0.223,0.009,0.332,0.009c1.404,0,2.643-0.877,3.146-2.148v-90.201
							C186.309,151.157,185.424,151.459,184.787,152.092z"/>
					</g>
				</g>
				<g>
					<g>
						<path fill="#F6E9E5" d="M191.137,243.479c1.848-0.185,3.201-1.811,3.053-3.646c0.594,1.748,2.482,2.712,4.262,2.157
							c1.77-0.564,2.762-2.451,2.229-4.229c0.971,1.596,3.053,2.108,4.656,1.146c1.605-0.961,2.131-3.054,1.166-4.666
							c0.01,0.011,0.02,0.02,0.029,0.027c1.383,1.275,3.541,1.189,4.816-0.193c1.271-1.38,1.186-3.53-0.197-4.804
							c-0.018-0.021-0.037-0.04-0.066-0.059c0.049,0.019,0.086,0.028,0.125,0.047c1.752,0.692,3.727-0.153,4.428-1.903
							c0.689-1.743-0.17-3.727-1.908-4.426c-0.049-0.021-0.098-0.029-0.146-0.05c0.041,0,0.078,0,0.119,0
							c1.885-0.048,3.363-1.613,3.316-3.491c-0.051-1.867-1.596-3.346-3.455-3.314c1.811-0.508,2.869-2.374,2.375-4.174
							c-0.496-1.817-2.375-2.888-4.182-2.392c-0.082,0.022-0.152,0.06-0.229,0.088c-0.002-0.009-0.006-0.021-0.012-0.028
							c0.307-0.158,0.596-0.351,0.84-0.595c0.635-0.633,0.992-1.507,0.992-2.412c0-0.894-0.357-1.768-0.992-2.401
							c-0.439-0.443-1.008-0.72-1.613-0.854c0.004-0.027,0.012-0.055,0.016-0.082c0,0,0.004-0.019,0.012-0.055
							c0.008,0.002,0.016,0.007,0.023,0.007c0.242,0.05,0.484,0.079,0.719,0.079c1.566,0,2.975-1.09,3.326-2.687
							c0.387-1.836-0.77-3.654-2.605-4.053c-0.014-0.003-0.025-0.002-0.037-0.005c0.002-0.011,0.006-0.024,0.008-0.036
							c0.004-0.021,0.008-0.038,0.012-0.058c0.227,0.048,0.463,0.069,0.688,0.069c1.557,0,2.965-1.079,3.316-2.675
							c0.398-1.834-0.756-3.642-2.588-4.044c0.006-0.034,0.014-0.067,0.018-0.104c0.033,0.006,0.061,0.019,0.09,0.024
							c0.195,0.038,0.379,0.048,0.574,0.048c1.633,0,3.072-1.176,3.344-2.828c0.322-1.858-0.932-3.62-2.781-3.932
							c-0.043-0.006-0.088-0.002-0.133-0.008c0.004-0.035,0.008-0.071,0.01-0.106c0.063,0.004,0.121,0.017,0.184,0.017
							c1.875-0.008,3.393-1.534,3.393-3.412c0-1.876-1.525-3.403-3.402-3.395c-0.084,0-0.164,0.021-0.246,0.025
							c-0.004-0.035-0.008-0.074-0.014-0.109c0.078-0.019,0.16-0.026,0.24-0.052c1.809-0.545,2.828-2.44,2.295-4.239
							c-0.545-1.801-2.441-2.821-4.24-2.286c-0.082,0.024-0.154,0.065-0.23,0.096c-0.016-0.034-0.031-0.067-0.047-0.099
							c0.072-0.042,0.146-0.077,0.219-0.123c1.564-1.031,2.004-3.143,0.973-4.707c-1.031-1.575-3.141-2.014-4.707-0.982
							c-0.068,0.045-0.125,0.104-0.189,0.153c-0.027-0.029-0.053-0.063-0.076-0.091c0.053-0.058,0.117-0.099,0.168-0.159
							c1.227-1.421,1.068-3.569-0.359-4.795c-1.42-1.227-3.57-1.069-4.795,0.352c-0.055,0.06-0.088,0.128-0.135,0.191
							c-0.029-0.021-0.061-0.042-0.094-0.062c0.037-0.063,0.08-0.123,0.111-0.19c0.826-1.691,0.117-3.725-1.566-4.552
							c-1.693-0.826-3.734-0.115-4.559,1.577c-0.031,0.063-0.047,0.128-0.072,0.192c-0.037-0.013-0.07-0.024-0.104-0.036
							c0.018-0.063,0.043-0.122,0.057-0.187c0.41-1.838-0.748-3.656-2.584-4.056c-1.838-0.408-3.648,0.75-4.059,2.587
							c-0.012,0.064-0.01,0.127-0.021,0.19c-0.049-0.005-0.096-0.012-0.143-0.016c0.004-0.064,0.02-0.129,0.02-0.193
							c0-0.895-0.371-1.78-1.002-2.412c-0.652-0.651-1.572-0.962-2.486-0.94c-0.029-0.001-0.057,0.006-0.084,0.006v90.201
							c0.107-0.27,0.191-0.548,0.227-0.846C187.645,242.341,189.287,243.663,191.137,243.479z"/>
					</g>
				</g>
			</g>
			<g>
				<g>
					<g>
						<rect x="173.51" y="232.228" fill="#D3C5C1" width="9.512" height="13.116"/>
					</g>
				</g>
				<g>
					<g>
						<rect x="191.697" y="232.228" fill="#F6E9E5" width="9.514" height="13.116"/>
					</g>
				</g>
				<g>
					<g>
						<g>
							<path fill="#D86D7A" d="M178.164,247.043c0.404,0,0.73,0.327,0.73,0.729v1.822h7.652c0-4.574-3.709-8.28-8.281-8.28
								c-4.57,0-8.279,3.706-8.279,8.28h7.449v-1.822C177.436,247.37,177.764,247.043,178.164,247.043z"/>
						</g>
					</g>
				</g>
				<g>
					<g>
						<g>
							<path fill="#D86D7A" d="M196.354,247.043c0.402,0,0.729,0.327,0.729,0.729v1.822h7.652c0-4.574-3.709-8.28-8.281-8.28
								c-4.57,0-8.279,3.706-8.279,8.28h7.449v-1.822C195.623,247.37,195.949,247.043,196.354,247.043z"/>
						</g>
					</g>
				</g>
			</g>
			<g>
				<g>
					<g>
						<path fill="#D3C5C1" d="M187.361,226.715c15.398,0,20.945-8.872,24.154-17.146c0,0-9.691,13.34-23.736,12.829
							c-11.914-0.433-24.873-12.743-24.873-12.743C166.115,217.93,175.441,226.715,187.361,226.715z"/>
					</g>
				</g>
			</g>
			<g>
				<g>
					<g>
						<path fill="#F5C89A" d="M212.877,184.904c0-7.162-5.805-12.967-12.967-12.967c-6.049,0-11.115,4.147-12.549,9.75
							c-1.434-5.603-6.502-9.75-12.549-9.75c-7.164,0-12.973,5.805-12.973,12.967c0,7.163,4.836,12.969,11.998,12.969
							c0,0,0.852,5.007,0.975,6.692c0.516,7.145,3.453,17.832,12.967,17.832c8.674,0,12.455-10.688,12.969-17.832
							c0.123-1.696,0.973-6.735,0.973-6.735C208.49,197.396,212.877,191.785,212.877,184.904z"/>
					</g>
				</g>
				<g>
					<g>
						<g>
							<g>
								<path fill="#411712" d="M179.096,186.159c0,2.569-2.082,4.652-4.65,4.652c-2.572,0-4.652-2.083-4.652-4.652
									c0-2.567,2.08-4.65,4.652-4.65C177.014,181.509,179.096,183.592,179.096,186.159z"/>
							</g>
						</g>
					</g>
					<g>
						<g>
							<g>
								<circle fill="#411712" cx="200.277" cy="186.159" r="4.652"/>
							</g>
						</g>
					</g>
					<g>
						<g>
							<circle fill="#FFFFFF" cx="176.016" cy="184.607" r="1.551"/>
						</g>
					</g>
					<g>
						<g>
							<path fill="#FFFFFF" d="M203.377,184.607c0,0.857-0.695,1.552-1.551,1.552c-0.859,0-1.551-0.694-1.551-1.552
								c0-0.855,0.691-1.551,1.551-1.551C202.682,183.057,203.377,183.752,203.377,184.607z"/>
						</g>
					</g>
				</g>
			</g>
			<g>
				<g>
					<path fill="#F19EA0" d="M192.984,206.912l-5.625,0.644l-5.625-0.644c-0.525-0.066-1.018,0.321-1.078,0.857
						c-0.061,0.534,0.322,1.015,0.854,1.076l4.811,0.551v7.069c-0.318,0.378-1.057,1.089-1.807,0.687
						c-0.475-0.254-1.064-0.076-1.316,0.396c-0.254,0.475-0.078,1.064,0.395,1.318c0.477,0.255,0.943,0.363,1.383,0.363
						c0.939,0,1.768-0.487,2.373-1.038c0.596,0.553,1.418,1.038,2.367,1.038c0.441,0,0.91-0.104,1.398-0.358
						c0.477-0.245,0.662-0.832,0.414-1.31c-0.244-0.477-0.834-0.662-1.309-0.415c-0.803,0.412-1.514-0.287-1.82-0.669v-7.081
						l4.809-0.551c0.535-0.062,0.916-0.542,0.855-1.076C194.002,207.233,193.518,206.845,192.984,206.912z"/>
				</g>
			</g>
		</g>
	</g>
	<text transform="matrix(1 0 0 1 79.1792 44.1313)"><tspan x="0" y="0" fill="#F6E9E5" font-family="'FranklinGothic-Heavy'" font-size="41">POST</tspan><tspan x="-28.798" y="49.2" fill="#F6E9E5" font-family="'FranklinGothic-Heavy'" font-size="41">CLONER</tspan></text>
</g>
</svg>
